<svg data-logo="logo" xmlns="http://www.w3.org/2000/svg" viewBox="0 0 152.68000030517578 41">
        <g style="opacity: 1;" id="logogram" transform="translate(0, 0.5)
    rotate(0 20 20)"><path fill-rule="evenodd" clip-rule="evenodd" d="M20 0C27.4768 0 31.2154 -0.000204921 34 1.60742C35.8242 2.66064 37.3394 4.17577 38.3926 6C40.0002 8.7846 40 12.5232 40 20C40 27.4768 40.0002 31.2154 38.3926 34C37.3394 35.8242 35.8242 37.3394 34 38.3926C31.2154 40.0002 27.4768 40 20 40C12.5232 40 8.7846 40.0002 6 38.3926C4.17577 37.3394 2.66064 35.8242 1.60742 34C-0.000204921 31.2154 0 27.4768 0 20C0 12.5232 -0.000204921 8.7846 1.60742 6C2.66064 4.17577 4.17577 2.66064 6 1.60742C8.7846 -0.000204921 12.5232 0 20 0ZM22 4C13.1634 4 6 11.1634 6 20C6 28.8366 13.1634 36 22 36C30.8366 36 38 28.8366 38 20C38 11.1634 30.8366 4 22 4Z" fill="#6C6C70"></path><path d="M36 20C36 25.5228 31.5228 30 26 30C20.4772 30 16 25.5228 16 20C16 14.4772 20.4772 10 26 10C31.5228 10 36 14.4772 36 20Z" fill="#6C6C70"></path></g>
        <g style="opacity: 1;" id="logotype" transform="translate(46, 7.31201171875)"><path fill="#6c6c70" d="M17.64 26.38L17.64 26.38Q14.58 26.38 12.31 25.44Q10.05 24.50 8.79 22.65Q7.52 20.80 7.45 18.10L7.45 18.10L12.53 18.10Q12.63 19.39 13.30 20.25Q13.96 21.11 15.07 21.54Q16.19 21.97 17.59 21.97L17.59 21.97Q18.99 21.97 20.02 21.57Q21.06 21.16 21.64 20.43Q22.22 19.69 22.22 18.72L22.22 18.72Q22.22 17.85 21.70 17.26Q21.18 16.67 20.20 16.24Q19.23 15.81 17.83 15.49L17.83 15.49L15.02 14.79Q11.79 14.00 9.96 12.32Q8.14 10.64 8.14 7.87L8.14 7.87Q8.14 5.56 9.38 3.83Q10.61 2.11 12.78 1.15Q14.94 0.19 17.71 0.19L17.71 0.19Q20.53 0.19 22.63 1.16Q24.73 2.13 25.91 3.84Q27.09 5.56 27.12 7.80L27.12 7.80L22.08 7.80Q21.94 6.26 20.77 5.42Q19.60 4.59 17.66 4.59L17.66 4.59Q16.34 4.59 15.40 4.96Q14.46 5.34 13.97 6.00Q13.49 6.67 13.49 7.53L13.49 7.53Q13.49 8.47 14.05 9.09Q14.61 9.71 15.55 10.10Q16.49 10.48 17.55 10.74L17.55 10.74L19.86 11.30Q21.47 11.66 22.85 12.28Q24.23 12.89 25.28 13.79Q26.32 14.69 26.89 15.92Q27.46 17.15 27.46 18.75L27.46 18.75Q27.46 21.06 26.30 22.78Q25.14 24.50 22.94 25.44Q20.73 26.38 17.64 26.38ZM26.98 6.89L38.31 6.89L38.31 10.81L26.98 10.81L26.98 6.89ZM29.62 20.86L29.62 2.35L34.74 2.35L34.74 20.41Q34.74 21.32 35.14 21.75Q35.55 22.19 36.49 22.19L36.49 22.19Q36.78 22.19 37.31 22.11Q37.84 22.04 38.11 21.97L38.11 21.97L38.84 25.81Q37.99 26.07 37.14 26.17Q36.30 26.27 35.53 26.27L35.53 26.27Q32.66 26.27 31.14 24.87Q29.62 23.47 29.62 20.86L29.62 20.86ZM44.50 26L39.37 26L39.37 6.89L44.33 6.89L44.33 10.23L44.53 10.23Q45.06 8.45 46.30 7.54Q47.54 6.64 49.15 6.64L49.15 6.64Q49.54 6.64 50.00 6.68Q50.46 6.72 50.81 6.81L50.81 6.81L50.81 11.39Q50.46 11.27 49.81 11.20Q49.16 11.13 48.58 11.13L48.58 11.13Q47.42 11.13 46.48 11.64Q45.54 12.14 45.02 13.04Q44.50 13.93 44.50 15.13L44.50 15.13L44.50 26ZM56.68 26.38L56.68 26.38Q54.87 26.38 53.43 25.74Q51.98 25.09 51.15 23.82Q50.32 22.55 50.32 20.65L50.32 20.65Q50.32 19.06 50.91 17.98Q51.50 16.91 52.52 16.26Q53.54 15.61 54.83 15.27Q56.12 14.93 57.54 14.79L57.54 14.79Q59.19 14.62 60.21 14.47Q61.23 14.33 61.70 14.01Q62.17 13.70 62.17 13.08L62.17 13.08L62.17 12.99Q62.17 12.17 61.83 11.61Q61.48 11.05 60.81 10.75Q60.13 10.45 59.18 10.45L59.18 10.45Q58.19 10.45 57.45 10.75Q56.72 11.05 56.26 11.54Q55.79 12.04 55.57 12.65L55.57 12.65L50.87 11.88Q51.37 10.21 52.51 9.05Q53.66 7.88 55.36 7.27Q57.06 6.65 59.19 6.65L59.19 6.65Q60.73 6.65 62.19 7.02Q63.64 7.39 64.79 8.16Q65.95 8.93 66.62 10.17Q67.30 11.41 67.30 13.13L67.30 13.13L67.30 26L62.44 26L62.44 23.35L62.27 23.35Q61.81 24.24 61.04 24.91Q60.27 25.59 59.19 25.98Q58.10 26.38 56.68 26.38ZM58.13 22.77L58.13 22.77Q59.35 22.77 60.26 22.29Q61.18 21.81 61.69 20.99Q62.20 20.17 62.20 19.16L62.20 19.16L62.20 17.10Q61.98 17.27 61.52 17.40Q61.06 17.54 60.49 17.64Q59.93 17.75 59.38 17.83Q58.84 17.92 58.41 17.97L58.41 17.97Q57.47 18.10 56.75 18.41Q56.03 18.72 55.64 19.22Q55.25 19.73 55.25 20.51L55.25 20.51Q55.25 21.25 55.62 21.75Q56.00 22.26 56.65 22.51Q57.30 22.77 58.13 22.77ZM76.37 26.32L76.37 26.32Q74.18 26.32 72.41 25.19Q70.64 24.05 69.62 21.86Q68.59 19.66 68.59 16.48L68.59 16.48Q68.59 13.22 69.65 11.03Q70.71 8.84 72.47 7.75Q74.23 6.65 76.35 6.65L76.35 6.65Q77.97 6.65 79.05 7.20Q80.13 7.75 80.79 8.55Q81.46 9.35 81.79 10.11L81.79 10.11L81.96 10.11L81.96 0.54L87.08 0.54L87.08 26L82.04 26L82.04 22.94L81.79 22.94Q81.44 23.71 80.77 24.49Q80.09 25.27 79.02 25.79Q77.94 26.32 76.37 26.32ZM77.96 22.21L77.96 22.21Q79.26 22.21 80.18 21.49Q81.10 20.77 81.58 19.48Q82.06 18.19 82.06 16.46L82.06 16.46Q82.06 14.72 81.59 13.45Q81.12 12.17 80.20 11.47Q79.27 10.76 77.96 10.76L77.96 10.76Q76.61 10.76 75.69 11.49Q74.78 12.23 74.32 13.51Q73.86 14.79 73.86 16.46L73.86 16.46Q73.86 18.14 74.33 19.44Q74.80 20.74 75.71 21.47Q76.62 22.21 77.96 22.21ZM94.52 26.38L94.52 26.38Q92.70 26.38 91.26 25.74Q89.82 25.09 88.99 23.82Q88.16 22.55 88.16 20.65L88.16 20.65Q88.16 19.06 88.75 17.98Q89.34 16.91 90.35 16.26Q91.37 15.61 92.66 15.27Q93.95 14.93 95.37 14.79L95.37 14.79Q97.03 14.62 98.04 14.47Q99.06 14.33 99.53 14.01Q100.00 13.70 100.00 13.08L100.00 13.08L100.00 12.99Q100.00 12.17 99.66 11.61Q99.32 11.05 98.64 10.75Q97.97 10.45 97.01 10.45L97.01 10.45Q96.02 10.45 95.28 10.75Q94.55 11.05 94.09 11.54Q93.63 12.04 93.40 12.65L93.40 12.65L88.70 11.88Q89.20 10.21 90.35 9.05Q91.49 7.88 93.19 7.27Q94.89 6.65 97.03 6.65L97.03 6.65Q98.57 6.65 100.02 7.02Q101.47 7.39 102.62 8.16Q103.78 8.93 104.45 10.17Q105.13 11.41 105.13 13.13L105.13 13.13L105.13 26L100.27 26L100.27 23.35L100.10 23.35Q99.64 24.24 98.87 24.91Q98.10 25.59 97.02 25.98Q95.93 26.38 94.52 26.38ZM95.97 22.77L95.97 22.77Q97.18 22.77 98.10 22.29Q99.01 21.81 99.52 20.99Q100.04 20.17 100.04 19.16L100.04 19.16L100.04 17.10Q99.81 17.27 99.35 17.40Q98.89 17.54 98.33 17.64Q97.76 17.75 97.22 17.83Q96.67 17.92 96.24 17.97L96.24 17.97Q95.30 18.10 94.58 18.41Q93.87 18.72 93.47 19.22Q93.08 19.73 93.08 20.51L93.08 20.51Q93.08 21.25 93.46 21.75Q93.83 22.26 94.48 22.51Q95.13 22.77 95.97 22.77Z"></path></g>
        
      </svg>